<svg id="Layer_1" data-name="Layer 1" xmlns="http://www.w3.org/2000/svg" viewBox="0 0 65.58 65.58"><defs><style>.cls-1{fill:#9c5da5}</style></defs><path class="cls-1" d="M381.17 238a6.5 6.5 0 0 0-3.73-3.73 10.86 10.86 0 0 0-3.65-.68c-2.07-.09-2.69-.11-7.93-.11s-5.86 0-7.93.11a10.86 10.86 0 0 0-3.65.68 6.5 6.5 0 0 0-3.73 3.73 10.86 10.86 0 0 0-.68 3.65c-.09 2.07-.11 2.69-.11 7.93s0 5.86.11 7.93a10.86 10.86 0 0 0 .68 3.65 6.5 6.5 0 0 0 3.73 3.73 10.86 10.86 0 0 0 3.65.68c2.07.09 2.69.11 7.93.11s5.86 0 7.93-.11a10.86 10.86 0 0 0 3.65-.68 6.5 6.5 0 0 0 3.73-3.73 10.86 10.86 0 0 0 .68-3.65c.09-2.07.11-2.69.11-7.93s0-5.86-.11-7.93a10.86 10.86 0 0 0-.68-3.65zm-15.31 21.66a10.08 10.08 0 1 1 10.08-10.08 10.08 10.08 0 0 1-10.08 10.1zm10.48-18.21a2.36 2.36 0 1 1 2.36-2.36 2.36 2.36 0 0 1-2.36 2.38z" transform="translate(-333.07 -216.8)"/><circle class="cls-1" cx="32.79" cy="32.79" r="6.54"/><path class="cls-1" d="M365.86 216.8a32.79 32.79 0 1 0 32.79 32.79 32.79 32.79 0 0 0-32.79-32.79zm19.51 40.89a14.41 14.41 0 0 1-.91 4.77 10 10 0 0 1-5.74 5.74 14.41 14.41 0 0 1-4.77.91c-2.09.1-2.76.12-8.09.12s-6 0-8.09-.12a14.41 14.41 0 0 1-4.77-.91 10 10 0 0 1-5.74-5.74 14.41 14.41 0 0 1-.91-4.77c-.1-2.09-.12-2.76-.12-8.09s0-6 .12-8.09a14.41 14.41 0 0 1 .91-4.77A10 10 0 0 1 353 231a14.41 14.41 0 0 1 4.77-.91c2.09-.1 2.76-.12 8.09-.12s6 0 8.09.12a14.41 14.41 0 0 1 4.77.91 10 10 0 0 1 5.74 5.74 14.41 14.41 0 0 1 .91 4.77c.1 2.09.12 2.76.12 8.09s-.02 5.99-.11 8.09z" transform="translate(-333.07 -216.8)"/></svg>