<svg data-name="Layer 1" xmlns="http://www.w3.org/2000/svg" viewBox="0 0 65.59 65.58"><path d="M32.84 65.58A32.79 32.79 0 1 0 .01 32.82a32.79 32.79 0 0 0 32.83 32.76" fill="#65ccef"/><path d="M49.25 24.2a13.51 13.51 0 0 1-3.87 1.06 6.75 6.75 0 0 0 3-3.73 13.48 13.48 0 0 1-4.28 1.63 6.75 6.75 0 0 0-11.48 6.15 19.13 19.13 0 0 1-13.89-7 6.75 6.75 0 0 0 2.09 9 6.76 6.76 0 0 1-3.05-.84v.08a6.74 6.74 0 0 0 5.41 6.61 6.58 6.58 0 0 1-1.78.24 6.7 6.7 0 0 1-1.27-.12 6.74 6.74 0 0 0 6.29 4.68 13.63 13.63 0 0 1-10 2.79 19.09 19.09 0 0 0 10.33 3c12.4 0 19.17-10.27 19.17-19.17 0-.29 0-.58 0-.87a13.67 13.67 0 0 0 3.36-3.49" fill="#fff"/></svg>