<svg id="Layer_1" data-name="Layer 1" xmlns="http://www.w3.org/2000/svg" viewBox="0 0 226.57 205.67"><defs><style>.cls-1{fill:#fd8f01;}</style></defs><title>ContactPhone</title><path class="cls-1" d="M119,260a5.84,5.84,0,1,1,5.84,5.84A5.84,5.84,0,0,1,119,260ZM129.42,87.85h-9.24a5.84,5.84,0,1,0,0,11.68h9.24A5.84,5.84,0,1,0,129.42,87.85Zm52,5.84V260a19.72,19.72,0,0,1-19.7,19.7H87.85A19.72,19.72,0,0,1,68.15,260V93.69A19.72,19.72,0,0,1,87.85,74h73.9A19.72,19.72,0,0,1,181.45,93.69ZM169.77,252H79.83v8a8,8,0,0,0,8,8h73.9a8,8,0,0,0,8-8v-8Zm0-138.57H79.83V240.28h89.94V113.38Zm0-19.7a8,8,0,0,0-8-8H87.85a8,8,0,0,0-8,8v8h89.94v-8Zm30.59,72.93a11.07,11.07,0,0,0,.15,22.13h0.15A11.07,11.07,0,1,0,200.37,166.61Zm94.35,9.78a93.59,93.59,0,0,0-28.5-66.23,6.48,6.48,0,0,0-4.59-1.83,6.45,6.45,0,0,0-4.41,11.07,81.32,81.32,0,0,1,1.57,115,6.45,6.45,0,0,0,4.62,10.94h0.09a6.4,6.4,0,0,0,4.53-1.95A93.6,93.6,0,0,0,294.72,176.39Zm-69.83-33a6.45,6.45,0,0,0,.13,9.12,35.17,35.17,0,0,1,.68,49.67,6.45,6.45,0,0,0,4.62,10.94h0.09a6.4,6.4,0,0,0,4.53-1.95,48.08,48.08,0,0,0-.93-67.91A6.45,6.45,0,0,0,224.88,143.39Z" transform="translate(-68.15 -73.99)"/></svg>